<?xml version="1.0" standalone="no"?>
<svg xmlns="http://www.w3.org/2000/svg" viewBox="0 0 400 400">
                
                <g id="fields" stroke="#18181b" stroke-width="6" fill="none" stroke-linecap="round">
                    <path d="M 50 360 Q 200 320 350 360"/>
                    <path d="M 90 380 Q 200 345 310 380" opacity="0.4"/>
                </g>

                <g id="palm-tree">
                    <path d="M 185 360 Q 195 240 200 160 Q 205 240 215 360 Z" fill="#44BD32"/>

                    <path d="M 200 160 C 185 80 160 40 200 20 C 240 40 215 80 200 160 Z" fill="#44BD32"/>
                    <circle cx="200" cy="20" r="5" fill="#44BD32"/>

                    <path d="M 200 160 C 150 100 80 70 50 80 C 90 110 150 130 200 160 Z" fill="#44BD32"/>
                    <circle cx="50" cy="80" r="5" fill="#44BD32"/>

                    <path d="M 200 160 C 250 100 320 70 350 80 C 310 110 250 130 200 160 Z" fill="#44BD32"/>
                    <circle cx="350" cy="80" r="5" fill="#44BD32"/>

                    <path d="M 200 160 C 140 130 60 130 20 165 C 80 175 140 175 200 160 Z" fill="#44BD32"/>
                    <circle cx="20" cy="165" r="5" fill="#44BD32"/>

                    <path d="M 200 160 C 260 130 340 130 380 165 C 320 175 260 175 200 160 Z" fill="#44BD32"/>
                    <circle cx="380" cy="165" r="5" fill="#44BD32"/>

                    <path d="M 200 160 C 150 170 70 210 40 260 C 90 240 160 200 200 160 Z" fill="#44BD32"/>
                    <circle cx="40" cy="260" r="5" fill="#44BD32"/>

                    <path d="M 200 160 C 250 170 330 210 360 260 C 310 240 240 200 200 160 Z" fill="#44BD32"/>
                    <circle cx="360" cy="260" r="5" fill="#44BD32"/>
                </g>

                <g id="drone">
                    <path d="M 120 220 C 150 220 170 230 200 230 C 230 230 250 220 280 220" fill="none" stroke="#18181b" stroke-width="8" stroke-linecap="round"/>
                    <rect x="105" y="205" width="30" height="15" rx="4" fill="#18181b"/>
                    <rect x="265" y="205" width="30" height="15" rx="4" fill="#18181b"/>
                    <path d="M 60 205 Q 120 195 180 205 Q 120 215 60 205 Z" fill="#3f3f46" opacity="0.9"/>
                    <path d="M 220 205 Q 280 195 340 205 Q 280 215 220 205 Z" fill="#3f3f46" opacity="0.9"/>
                    <path d="M 170 240 C 155 270 145 300 125 310" fill="none" stroke="#18181b" stroke-width="6" stroke-linecap="round"/>
                    <path d="M 230 240 C 245 270 255 300 275 310" fill="none" stroke="#18181b" stroke-width="6" stroke-linecap="round"/>
                    <path d="M 160 225 Q 200 205 240 225 L 260 245 C 260 255 240 265 200 265 C 160 265 140 255 140 245 Z" fill="#18181b"/>
                    <circle cx="200" cy="265" r="16" fill="#18181b"/>
                    <circle cx="200" cy="265" r="9" fill="#e4e4e7"/>
                    <circle cx="200" cy="265" r="4.5" fill="#18181b"/>
                    <circle cx="203" cy="262" r="2" fill="#ffffff"/>
                    <path d="M 185 295 Q 200 305 215 295" fill="none" stroke="#18181b" stroke-width="3" stroke-linecap="round" opacity="0.6"/>
                    <path d="M 175 305 Q 200 320 225 305" fill="none" stroke="#18181b" stroke-width="3" stroke-linecap="round" opacity="0.3"/>
                </g>
            </svg>
